<?xml version="1.0" encoding="UTF-8"?><svg xmlns="http://www.w3.org/2000/svg" xmlns:xlink="http://www.w3.org/1999/xlink" contentScriptType="text/ecmascript" width="810pt" zoomAndPan="magnify" contentStyleType="text/css" viewBox="0 0 810 809.999993" height="809.999993pt" preserveAspectRatio="xMidYMid meet" version="1.2"><defs><clipPath xml:id="clip1" id="clip1"><path d="M 367.441406 372 L 442.117188 372 L 442.117188 458.222656 L 367.441406 458.222656 Z M 367.441406 372 "/></clipPath><clipPath xml:id="clip2" id="clip2"><path d="M 385 351.722656 L 397 351.722656 L 397 367 L 385 367 Z M 385 351.722656 "/></clipPath><clipPath xml:id="clip3" id="clip3"><path d="M 398 351.722656 L 410 351.722656 L 410 367 L 398 367 Z M 398 351.722656 "/></clipPath><clipPath xml:id="clip4" id="clip4"><path d="M 412 351.722656 L 424 351.722656 L 424 367 L 412 367 Z M 412 351.722656 "/></clipPath></defs><g xml:id="surface1" id="surface1"><g clip-rule="nonzero" clip-path="url(#clip1)"><path style=" stroke:none;fill-rule:nonzero;fill:rgb(14.898682%,30.198669%,89.408875%);fill-opacity:1;" d="M 404.746094 458.476562 L 374.277344 449.902344 L 367.488281 372.703125 L 442.097656 372.699219 L 435.304688 449.890625 L 404.75 458.476562 Z M 404.746094 458.476562 "/></g><path style=" stroke:none;fill-rule:nonzero;fill:rgb(16.079712%,39.608765%,94.509888%);fill-opacity:1;" d="M 429.484375 444.976562 L 435.292969 379.015625 L 404.792969 379.011719 L 404.792969 451.910156 L 429.484375 444.972656 Z M 429.484375 444.976562 "/><path style=" stroke:none;fill-rule:nonzero;fill:rgb(92.158508%,92.158508%,92.158508%);fill-opacity:1;" d="M 383.054688 407.648438 L 383.890625 417.113281 L 404.792969 417.113281 L 404.792969 407.648438 Z M 383.054688 407.648438 "/><path style=" stroke:none;fill-rule:nonzero;fill:rgb(92.158508%,92.158508%,92.158508%);fill-opacity:1;" d="M 381.371094 388.480469 L 382.222656 397.949219 L 404.792969 397.949219 L 404.792969 388.480469 Z M 381.371094 388.480469 "/><path style=" stroke:none;fill-rule:nonzero;fill:rgb(92.158508%,92.158508%,92.158508%);fill-opacity:1;" d="M 404.792969 432.234375 L 404.753906 432.246094 L 394.351562 429.398438 L 393.6875 421.847656 L 384.308594 421.847656 L 385.617188 436.714844 L 404.75 442.101562 L 404.792969 442.085938 Z M 404.792969 432.234375 "/><g clip-rule="nonzero" clip-path="url(#clip2)"><path style=" stroke:none;fill-rule:nonzero;fill:rgb(0%,0%,0%);fill-opacity:1;" d="M 385.046875 351.722656 L 396.359375 351.722656 L 396.359375 356.515625 L 389.777344 356.515625 L 389.777344 361.3125 L 396.359375 361.3125 L 396.359375 366.109375 L 385.046875 366.109375 Z M 385.046875 351.722656 "/></g><g clip-rule="nonzero" clip-path="url(#clip3)"><path style=" stroke:none;fill-rule:nonzero;fill:rgb(0%,0%,0%);fill-opacity:1;" d="M 398.625 351.722656 L 409.9375 351.722656 L 409.9375 355.890625 L 403.355469 355.890625 L 403.355469 356.726562 L 409.9375 356.726562 L 409.9375 366.316406 L 398.625 366.316406 L 398.625 361.9375 L 405.207031 361.9375 L 405.207031 361.105469 L 398.625 361.105469 Z M 398.625 351.722656 "/></g><g clip-rule="nonzero" clip-path="url(#clip4)"><path style=" stroke:none;fill-rule:nonzero;fill:rgb(0%,0%,0%);fill-opacity:1;" d="M 412.199219 351.722656 L 423.511719 351.722656 L 423.511719 355.890625 L 416.929688 355.890625 L 416.929688 356.726562 L 423.511719 356.726562 L 423.511719 366.316406 L 412.199219 366.316406 L 412.199219 361.9375 L 418.78125 361.9375 L 418.78125 361.105469 L 412.199219 361.105469 Z M 412.199219 351.722656 "/></g><path style=" stroke:none;fill-rule:nonzero;fill:rgb(100%,100%,100%);fill-opacity:1;" d="M 426.476562 407.648438 L 428.160156 388.480469 L 404.761719 388.480469 L 404.761719 397.949219 L 417.921875 397.949219 L 417.074219 407.648438 L 404.761719 407.648438 L 404.761719 417.113281 L 416.265625 417.113281 L 415.179688 429.394531 L 404.761719 432.246094 L 404.761719 442.09375 L 423.910156 436.714844 L 424.050781 435.113281 L 426.246094 410.1875 Z M 426.476562 407.648438 "/></g></svg>