<?xml version="1.0" encoding="UTF-8"?><svg xmlns="http://www.w3.org/2000/svg" xmlns:xlink="http://www.w3.org/1999/xlink" contentScriptType="text/ecmascript" width="810pt" zoomAndPan="magnify" contentStyleType="text/css" viewBox="0 0 810 809.999993" height="809.999993pt" preserveAspectRatio="xMidYMid meet" version="1.2"><defs><clipPath xml:id="clip1" id="clip1"><path d="M 367.589844 423 L 406 423 L 406 461.351562 L 367.589844 461.351562 Z M 367.589844 423 "/></clipPath><clipPath xml:id="clip2" id="clip2"><path d="M 367.589844 386 L 406 386 L 406 424 L 367.589844 424 Z M 367.589844 386 "/></clipPath><clipPath xml:id="clip3" id="clip3"><path d="M 367.589844 348.851562 L 406 348.851562 L 406 387 L 367.589844 387 Z M 367.589844 348.851562 "/></clipPath><clipPath xml:id="clip4" id="clip4"><path d="M 405 348.851562 L 442.589844 348.851562 L 442.589844 387 L 405 387 Z M 405 348.851562 "/></clipPath><clipPath xml:id="clip5" id="clip5"><path d="M 405 386 L 442.589844 386 L 442.589844 424 L 405 424 Z M 405 386 "/></clipPath></defs><g xml:id="surface1" id="surface1"><g clip-rule="nonzero" clip-path="url(#clip1)"><path style=" stroke:none;fill-rule:nonzero;fill:rgb(3.919983%,81.17981%,51.368713%);fill-opacity:1;" d="M 386.386719 461.527344 C 396.765625 461.527344 405.183594 453.117188 405.183594 442.753906 L 405.183594 423.980469 L 386.386719 423.980469 C 376.011719 423.980469 367.589844 432.390625 367.589844 442.753906 C 367.589844 453.117188 376.011719 461.527344 386.386719 461.527344 Z M 386.386719 461.527344 "/></g><g clip-rule="nonzero" clip-path="url(#clip2)"><path style=" stroke:none;fill-rule:nonzero;fill:rgb(63.529968%,34.899902%,100%);fill-opacity:1;" d="M 367.589844 405.207031 C 367.589844 394.84375 376.011719 386.433594 386.386719 386.433594 L 405.183594 386.433594 L 405.183594 423.980469 L 386.386719 423.980469 C 376.011719 423.980469 367.589844 415.570312 367.589844 405.207031 Z M 367.589844 405.207031 "/></g><g clip-rule="nonzero" clip-path="url(#clip3)"><path style=" stroke:none;fill-rule:nonzero;fill:rgb(94.898987%,30.589294%,11.759949%);fill-opacity:1;" d="M 367.589844 367.660156 C 367.589844 357.296875 376.011719 348.886719 386.386719 348.886719 L 405.183594 348.886719 L 405.183594 386.433594 L 386.386719 386.433594 C 376.011719 386.433594 367.589844 378.023438 367.589844 367.660156 Z M 367.589844 367.660156 "/></g><g clip-rule="nonzero" clip-path="url(#clip4)"><path style=" stroke:none;fill-rule:nonzero;fill:rgb(100%,44.709778%,38.42926%);fill-opacity:1;" d="M 405.183594 348.886719 L 423.980469 348.886719 C 434.359375 348.886719 442.777344 357.296875 442.777344 367.660156 C 442.777344 378.023438 434.359375 386.433594 423.980469 386.433594 L 405.183594 386.433594 Z M 405.183594 348.886719 "/></g><g clip-rule="nonzero" clip-path="url(#clip5)"><path style=" stroke:none;fill-rule:nonzero;fill:rgb(10.198975%,73.728943%,99.609375%);fill-opacity:1;" d="M 442.777344 405.207031 C 442.777344 415.570312 434.359375 423.980469 423.980469 423.980469 C 413.605469 423.980469 405.183594 415.570312 405.183594 405.207031 C 405.183594 394.84375 413.605469 386.433594 423.980469 386.433594 C 434.359375 386.433594 442.777344 394.84375 442.777344 405.207031 Z M 442.777344 405.207031 "/></g></g></svg>