<?xml version="1.0" encoding="UTF-8"?><svg xmlns="http://www.w3.org/2000/svg" xmlns:xlink="http://www.w3.org/1999/xlink" contentScriptType="text/ecmascript" width="810pt" zoomAndPan="magnify" contentStyleType="text/css" viewBox="0 0 810 809.999993" height="809.999993pt" preserveAspectRatio="xMidYMid meet" version="1.2"><defs><clipPath xml:id="clip1" id="clip1"><path d="M 349 349 L 461.417969 349 L 461.417969 461.417969 L 349 461.417969 Z M 349 349 "/></clipPath></defs><g xml:id="surface1" id="surface1"><g clip-rule="nonzero" clip-path="url(#clip1)"><path style=" stroke:none;fill-rule:nonzero;fill:rgb(87.059021%,29.798889%,21.179199%);fill-opacity:1;" d="M 458.957031 400.371094 L 410.300781 351.714844 C 407.5 348.914062 402.957031 348.914062 400.152344 351.714844 L 390.046875 361.820312 L 402.863281 374.636719 C 405.84375 373.632812 409.257812 374.304688 411.632812 376.679688 C 414.019531 379.070312 414.6875 382.515625 413.65625 385.503906 L 426.011719 397.859375 C 429 396.828125 432.445312 397.492188 434.835938 399.882812 C 438.171875 403.21875 438.171875 408.625 434.835938 411.960938 C 431.496094 415.296875 426.09375 415.296875 422.753906 411.960938 C 420.242188 409.445312 419.625 405.765625 420.894531 402.671875 L 409.378906 391.152344 L 409.371094 421.46875 C 410.1875 421.871094 410.953125 422.40625 411.632812 423.082031 C 414.96875 426.417969 414.96875 431.824219 411.632812 435.164062 C 408.296875 438.496094 402.886719 438.496094 399.554688 435.164062 C 396.222656 431.824219 396.222656 426.417969 399.554688 423.082031 C 400.378906 422.257812 401.332031 421.636719 402.351562 421.21875 L 402.351562 390.621094 C 401.332031 390.207031 400.382812 389.585938 399.554688 388.757812 C 397.027344 386.234375 396.421875 382.523438 397.714844 379.421875 L 385.082031 366.785156 L 351.714844 400.148438 C 348.914062 402.953125 348.914062 407.496094 351.714844 410.300781 L 400.375 458.957031 C 403.179688 461.757812 407.722656 461.757812 410.527344 458.957031 L 458.960938 410.527344 C 461.761719 407.722656 461.761719 403.175781 458.960938 400.371094 "/></g></g></svg>