<?xml version="1.0" encoding="UTF-8"?><svg xmlns="http://www.w3.org/2000/svg" xmlns:xlink="http://www.w3.org/1999/xlink" contentScriptType="text/ecmascript" width="810pt" zoomAndPan="magnify" contentStyleType="text/css" viewBox="0 0 810 809.999993" height="809.999993pt" preserveAspectRatio="xMidYMid meet" version="1.2"><defs><clipPath xml:id="clip1" id="clip1"><path d="M 387 348.832031 L 453.046875 348.832031 L 453.046875 461.332031 L 387 461.332031 Z M 387 348.832031 "/></clipPath><clipPath xml:id="clip2" id="clip2"><path d="M 357.046875 348.832031 L 405 348.832031 L 405 461.332031 L 357.046875 461.332031 Z M 357.046875 348.832031 "/></clipPath></defs><g xml:id="surface1" id="surface1"><g clip-rule="nonzero" clip-path="url(#clip1)"><path style=" stroke:none;fill-rule:nonzero;fill:rgb(33.729553%,30.198669%,50.19989%);fill-opacity:1;" d="M 439.9375 348.832031 L 404.378906 348.832031 L 387.890625 405.164062 L 404.378906 461.496094 L 439.9375 461.496094 C 447.210938 461.496094 453.125 455.570312 453.125 448.292969 L 453.125 362.03125 C 453.125 354.753906 447.210938 348.832031 439.9375 348.832031 Z M 439.9375 348.832031 "/></g><g clip-rule="nonzero" clip-path="url(#clip2)"><path style=" stroke:none;fill-rule:nonzero;fill:rgb(50.19989%,38.42926%,65.489197%);fill-opacity:1;" d="M 370.25 348.832031 C 362.976562 348.832031 357.058594 354.753906 357.058594 362.03125 L 357.058594 448.292969 C 357.058594 455.570312 362.976562 461.496094 370.25 461.496094 L 404.378906 461.496094 L 404.378906 348.832031 Z M 370.25 348.832031 "/></g><path style=" stroke:none;fill-rule:nonzero;fill:rgb(93.728638%,96.469116%,97.648621%);fill-opacity:1;" d="M 425.320312 395.75 C 421.40625 392.433594 416.109375 391.039062 410.78125 391.929688 L 404.378906 392.996094 L 397.78125 399.78125 L 404.378906 406.382812 L 412.949219 404.953125 C 414.464844 404.699219 415.832031 405.007812 416.792969 405.824219 C 417.753906 406.636719 418.28125 407.933594 418.28125 409.472656 L 418.28125 448.292969 L 431.472656 448.292969 L 431.472656 409.472656 C 431.472656 404.066406 429.230469 399.066406 425.320312 395.75 Z M 425.320312 395.75 "/><path style=" stroke:none;fill-rule:nonzero;fill:rgb(100%,100%,100%);fill-opacity:1;" d="M 391.902344 395.078125 L 391.902344 362.03125 L 378.710938 362.03125 L 378.710938 410.664062 L 404.378906 406.382812 L 404.378906 392.996094 Z M 391.902344 395.078125 "/><path style=" stroke:none;fill-rule:nonzero;fill:rgb(100%,100%,100%);fill-opacity:1;" d="M 378.710938 425.625 L 391.902344 435.527344 L 378.710938 445.429688 Z M 378.710938 425.625 "/><path style=" stroke:none;fill-rule:nonzero;fill:rgb(93.728638%,96.469116%,97.648621%);fill-opacity:1;" d="M 429.96875 375.425781 C 430.960938 371.082031 431.472656 366.597656 431.472656 362.03125 L 418.28125 362.03125 C 418.28125 366.6875 417.589844 371.183594 416.3125 375.425781 Z M 429.96875 375.425781 "/></g></svg>