<?xml version="1.0" encoding="UTF-8"?><svg xmlns="http://www.w3.org/2000/svg" xmlns:xlink="http://www.w3.org/1999/xlink" contentScriptType="text/ecmascript" width="810pt" zoomAndPan="magnify" contentStyleType="text/css" viewBox="0 0 810 809.999993" height="809.999993pt" preserveAspectRatio="xMidYMid meet" version="1.2"><defs><clipPath xml:id="clip1" id="clip1"><path d="M 367.714844 373 L 441.648438 373 L 441.648438 457.265625 L 367.714844 457.265625 Z M 367.714844 373 "/></clipPath><clipPath xml:id="clip2" id="clip2"><path d="M 374 352.417969 L 389 352.417969 L 389 367 L 374 367 Z M 374 352.417969 "/></clipPath><clipPath xml:id="clip3" id="clip3"><path d="M 390 352.417969 L 404 352.417969 L 404 367 L 390 367 Z M 390 352.417969 "/></clipPath><clipPath xml:id="clip4" id="clip4"><path d="M 405 352.417969 L 422 352.417969 L 422 367 L 405 367 Z M 405 352.417969 "/></clipPath><clipPath xml:id="clip5" id="clip5"><path d="M 423 352.417969 L 435 352.417969 L 435 367 L 423 367 Z M 423 352.417969 "/></clipPath></defs><g xml:id="surface1" id="surface1"><g clip-rule="nonzero" clip-path="url(#clip1)"><path style=" stroke:none;fill-rule:nonzero;fill:rgb(89.408875%,30.198669%,14.898682%);fill-opacity:1;" d="M 441.628906 373.023438 L 434.898438 448.828125 L 404.648438 457.261719 L 374.488281 448.839844 L 367.765625 373.023438 Z M 441.628906 373.023438 "/></g><path style=" stroke:none;fill-rule:nonzero;fill:rgb(94.509888%,39.608765%,16.079712%);fill-opacity:1;" d="M 404.695312 450.816406 L 429.140625 444.003906 L 434.890625 379.222656 L 404.695312 379.222656 Z M 404.695312 450.816406 "/><path style=" stroke:none;fill-rule:nonzero;fill:rgb(92.158508%,92.158508%,92.158508%);fill-opacity:1;" d="M 391.617188 397.820312 L 404.695312 397.820312 L 404.695312 388.519531 L 381.511719 388.519531 L 381.730469 391.015625 L 384.003906 416.640625 L 404.695312 416.640625 L 404.695312 407.34375 L 392.460938 407.34375 Z M 391.617188 397.820312 "/><path style=" stroke:none;fill-rule:nonzero;fill:rgb(92.158508%,92.158508%,92.158508%);fill-opacity:1;" d="M 393.699219 421.289062 L 384.417969 421.289062 L 385.710938 435.890625 L 404.652344 441.179688 L 404.695312 441.167969 L 404.695312 431.492188 L 404.65625 431.503906 L 394.359375 428.707031 Z M 393.699219 421.289062 "/><g clip-rule="nonzero" clip-path="url(#clip2)"><path style=" stroke:none;fill-rule:nonzero;fill:rgb(0%,0%,0%);fill-opacity:1;" d="M 374.636719 352.417969 L 379.335938 352.417969 L 379.335938 357.085938 L 383.636719 357.085938 L 383.636719 352.417969 L 388.335938 352.417969 L 388.335938 366.554688 L 383.636719 366.554688 L 383.636719 361.820312 L 379.335938 361.820312 L 379.335938 366.554688 L 374.636719 366.554688 Z M 374.636719 352.417969 "/></g><g clip-rule="nonzero" clip-path="url(#clip3)"><path style=" stroke:none;fill-rule:nonzero;fill:rgb(0%,0%,0%);fill-opacity:1;" d="M 394.515625 357.105469 L 390.378906 357.105469 L 390.378906 352.417969 L 403.351562 352.417969 L 403.351562 357.105469 L 399.214844 357.105469 L 399.214844 366.554688 L 394.515625 366.554688 Z M 394.515625 357.105469 "/></g><g clip-rule="nonzero" clip-path="url(#clip4)"><path style=" stroke:none;fill-rule:nonzero;fill:rgb(0%,0%,0%);fill-opacity:1;" d="M 405.410156 352.417969 L 410.3125 352.417969 L 413.324219 357.386719 L 416.335938 352.417969 L 421.238281 352.417969 L 421.238281 366.554688 L 416.558594 366.554688 L 416.558594 359.550781 L 413.324219 364.574219 L 413.242188 364.574219 L 410.007812 359.550781 L 410.007812 366.554688 L 405.410156 366.554688 Z M 405.410156 352.417969 "/></g><g clip-rule="nonzero" clip-path="url(#clip5)"><path style=" stroke:none;fill-rule:nonzero;fill:rgb(0%,0%,0%);fill-opacity:1;" d="M 423.578125 352.417969 L 428.277344 352.417969 L 428.277344 361.882812 L 434.886719 361.882812 L 434.886719 366.554688 L 423.578125 366.554688 Z M 423.578125 352.417969 "/></g><path style=" stroke:none;fill-rule:nonzero;fill:rgb(100%,100%,100%);fill-opacity:1;" d="M 404.664062 416.640625 L 416.050781 416.640625 L 414.976562 428.699219 L 404.664062 431.5 L 404.664062 441.171875 L 423.621094 435.890625 L 423.757812 434.320312 L 425.933594 409.839844 L 426.160156 407.34375 L 404.664062 407.34375 Z M 404.664062 416.640625 "/><path style=" stroke:none;fill-rule:nonzero;fill:rgb(100%,100%,100%);fill-opacity:1;" d="M 404.664062 397.796875 L 404.664062 397.820312 L 427 397.820312 L 427.183594 395.730469 L 427.609375 391.015625 L 427.828125 388.519531 L 404.664062 388.519531 Z M 404.664062 397.796875 "/></g></svg>