<?xml version="1.0" encoding="UTF-8"?><svg xmlns="http://www.w3.org/2000/svg" xmlns:xlink="http://www.w3.org/1999/xlink" contentScriptType="text/ecmascript" width="810pt" zoomAndPan="magnify" contentStyleType="text/css" viewBox="0 0 810 809.999993" height="809.999993pt" preserveAspectRatio="xMidYMid meet" version="1.2"><defs><clipPath xml:id="clip1" id="clip1"><path d="M 361 356.441406 L 447 356.441406 L 447 452.828125 L 361 452.828125 Z M 361 356.441406 "/></clipPath></defs><g xml:id="surface1" id="surface1"><path style=" stroke:none;fill-rule:nonzero;fill:rgb(100%,89.7995%,46.669006%);fill-opacity:1;" d="M 433.957031 372.5625 C 442.550781 381.707031 449.613281 436.902344 430.582031 440.027344 C 412.054688 443.066406 367.3125 450.535156 366.90625 424.597656 C 366.496094 398.660156 360.707031 374.140625 384.828125 369.449219 C 401.726562 366.160156 425.1875 363.230469 433.957031 372.5625 Z M 433.957031 372.5625 "/><path style=" stroke:none;fill-rule:nonzero;fill:rgb(0%,0%,0%);fill-opacity:1;" d="M 382.921875 439.957031 C 381.375 439.957031 379.820312 439.566406 378.402344 438.78125 L 376.234375 437.585938 C 375.257812 437.050781 374.90625 435.835938 375.453125 434.867188 C 375.996094 433.894531 377.230469 433.558594 378.203125 434.09375 L 380.371094 435.292969 C 382.003906 436.191406 383.953125 436.179688 385.578125 435.230469 C 387.195312 434.292969 388.167969 432.621094 388.167969 430.757812 L 388.167969 386.835938 C 388.167969 385.734375 389.070312 384.835938 390.1875 384.835938 C 391.304688 384.835938 392.210938 385.734375 392.210938 386.835938 L 392.210938 430.753906 C 392.210938 434.046875 390.496094 437.007812 387.625 438.675781 C 386.160156 439.535156 384.542969 439.957031 382.921875 439.957031 Z M 382.921875 439.957031 "/><g clip-rule="nonzero" clip-path="url(#clip1)"><path style=" stroke:none;fill-rule:nonzero;fill:rgb(0%,0%,0%);fill-opacity:1;" d="M 404.347656 452.824219 C 403.242188 452.824219 402.132812 452.542969 401.148438 451.96875 L 391.183594 446.21875 C 390.21875 445.660156 389.894531 444.4375 390.453125 443.480469 C 391.015625 442.527344 392.253906 442.199219 393.21875 442.761719 L 403.1875 448.511719 C 403.910156 448.929688 404.777344 448.9375 405.503906 448.511719 L 441.578125 427.691406 C 442.300781 427.277344 442.746094 426.488281 442.75 425.648438 L 442.75 384.007812 C 442.75 383.167969 442.300781 382.386719 441.570312 381.960938 L 405.507812 361.148438 C 404.789062 360.730469 403.90625 360.730469 403.195312 361.148438 L 367.09375 381.964844 C 366.371094 382.386719 365.921875 383.164062 365.925781 384.003906 L 365.925781 425.648438 C 365.925781 426.492188 366.371094 427.269531 367.097656 427.6875 L 378.242188 434.121094 C 379.207031 434.675781 379.535156 435.898438 378.972656 436.855469 C 378.410156 437.8125 377.167969 438.136719 376.207031 437.574219 L 365.058594 431.144531 C 363.101562 430.015625 361.882812 427.910156 361.882812 425.648438 L 361.882812 384.007812 C 361.878906 381.753906 363.09375 379.644531 365.054688 378.515625 L 401.144531 357.699219 C 403.117188 356.554688 405.578125 356.5625 407.542969 357.691406 L 443.613281 378.511719 C 445.578125 379.648438 446.796875 381.753906 446.796875 384.007812 L 446.796875 425.65625 C 446.792969 427.902344 445.574219 430.007812 443.625 431.144531 L 407.542969 451.96875 C 406.558594 452.542969 405.453125 452.824219 404.347656 452.824219 Z M 404.347656 452.824219 "/></g><path style=" stroke:none;fill-rule:nonzero;fill:rgb(0%,0%,0%);fill-opacity:1;" d="M 414.449219 424.832031 C 405.648438 424.832031 396.253906 421.941406 396.253906 413.832031 C 396.253906 412.730469 397.160156 411.835938 398.273438 411.835938 C 399.390625 411.835938 400.296875 412.730469 400.296875 413.832031 C 400.296875 420.636719 413 420.832031 414.449219 420.832031 C 422.191406 420.832031 428.601562 420.304688 428.601562 413.832031 C 428.601562 410.546875 425.238281 409.429688 416.988281 407.496094 L 413.964844 406.773438 C 413.03125 406.542969 412.035156 406.332031 411.015625 406.105469 C 404.4375 404.679688 396.253906 402.898438 396.253906 395.835938 C 396.253906 387.730469 405.648438 384.835938 414.449219 384.835938 C 423.246094 384.835938 432.644531 387.730469 432.644531 395.835938 C 432.644531 396.941406 431.738281 397.835938 430.621094 397.835938 C 429.503906 397.835938 428.601562 396.941406 428.601562 395.835938 C 428.601562 389.03125 415.894531 388.835938 414.449219 388.835938 C 413 388.835938 400.296875 389.03125 400.296875 395.835938 C 400.296875 399.398438 405.316406 400.777344 411.878906 402.203125 C 412.941406 402.433594 413.96875 402.65625 414.933594 402.894531 L 417.917969 403.605469 C 425.816406 405.453125 432.644531 407.058594 432.644531 413.832031 C 432.644531 424.832031 420.804688 424.832031 414.449219 424.832031 Z M 414.449219 424.832031 "/></g></svg>