<?xml version="1.0" encoding="UTF-8"?><svg xmlns="http://www.w3.org/2000/svg" xmlns:xlink="http://www.w3.org/1999/xlink" contentScriptType="text/ecmascript" width="810pt" zoomAndPan="magnify" contentStyleType="text/css" viewBox="0 0 810 809.999993" height="809.999993pt" preserveAspectRatio="xMidYMid meet" version="1.2"><g xml:id="surface1" id="surface1"><path style=" stroke:none;fill-rule:nonzero;fill:rgb(60.778809%,6.269836%,6.269836%);fill-opacity:1;" d="M 440.242188 385.570312 L 436.339844 436.339844 L 385.570312 440.242188 Z M 440.242188 385.570312 "/><path style=" stroke:none;fill-rule:nonzero;fill:rgb(71.759033%,10.978699%,10.978699%);fill-opacity:1;" d="M 412.90625 412.90625 L 436.339844 436.339844 L 440.242188 385.570312 Z M 412.90625 412.90625 "/><path style=" stroke:none;fill-rule:nonzero;fill:rgb(77.648926%,15.689087%,15.689087%);fill-opacity:1;" d="M 436.328125 373.863281 C 436.855469 374.390625 437.332031 374.96875 437.757812 375.59375 C 438.179688 376.21875 438.550781 376.890625 438.871094 377.605469 C 439.1875 378.324219 439.449219 379.082031 439.660156 379.882812 C 439.867188 380.683594 440.019531 381.527344 440.113281 382.402344 C 440.210938 383.28125 440.25 384.195312 440.230469 385.144531 C 440.214844 386.089844 440.140625 387.066406 440.011719 388.074219 C 439.882812 389.082031 439.695312 390.113281 439.457031 391.167969 C 439.214844 392.226562 438.917969 393.304688 438.570312 394.398438 C 438.21875 395.496094 437.816406 396.605469 437.359375 397.730469 C 436.902344 398.855469 436.394531 399.992188 435.839844 401.132812 C 435.28125 402.277344 434.675781 403.425781 434.023438 404.578125 C 433.367188 405.726562 432.671875 406.875 431.925781 408.023438 C 431.183594 409.167969 430.398438 410.308594 429.574219 411.441406 C 428.75 412.574219 427.886719 413.691406 426.984375 414.796875 C 426.085938 415.902344 425.152344 416.992188 424.183594 418.0625 C 423.21875 419.132812 422.222656 420.179688 421.203125 421.199219 C 420.179688 422.222656 419.132812 423.21875 418.0625 424.183594 C 416.992188 425.152344 415.90625 426.085938 414.800781 426.984375 C 413.691406 427.886719 412.574219 428.746094 411.441406 429.574219 C 410.308594 430.398438 409.171875 431.183594 408.023438 431.925781 C 406.875 432.671875 405.726562 433.367188 404.578125 434.023438 C 403.425781 434.675781 402.28125 435.28125 401.136719 435.839844 C 399.992188 436.394531 398.859375 436.902344 397.734375 437.359375 C 396.605469 437.816406 395.496094 438.21875 394.398438 438.570312 C 393.304688 438.917969 392.226562 439.214844 391.171875 439.457031 C 390.113281 439.699219 389.082031 439.882812 388.074219 440.011719 C 387.070312 440.144531 386.09375 440.214844 385.144531 440.234375 C 384.195312 440.25 383.285156 440.210938 382.40625 440.113281 C 381.527344 440.019531 380.6875 439.867188 379.886719 439.660156 C 379.082031 439.453125 378.324219 439.1875 377.605469 438.871094 C 376.890625 438.554688 376.21875 438.183594 375.59375 437.757812 C 374.96875 437.332031 374.394531 436.855469 373.863281 436.328125 C 373.335938 435.800781 372.863281 435.226562 372.4375 434.601562 C 372.011719 433.976562 371.640625 433.304688 371.324219 432.585938 C 371.003906 431.871094 370.742188 431.113281 370.535156 430.308594 C 370.328125 429.507812 370.175781 428.667969 370.078125 427.789062 C 369.984375 426.910156 369.945312 425.996094 369.960938 425.050781 C 369.976562 424.101562 370.050781 423.125 370.179688 422.117188 C 370.3125 421.113281 370.496094 420.082031 370.738281 419.023438 C 370.980469 417.96875 371.273438 416.890625 371.625 415.792969 C 371.976562 414.699219 372.378906 413.585938 372.835938 412.460938 C 373.289062 411.335938 373.796875 410.203125 374.355469 409.058594 C 374.914062 407.914062 375.519531 406.769531 376.171875 405.617188 C 376.824219 404.464844 377.523438 403.316406 378.265625 402.171875 C 379.007812 401.023438 379.792969 399.882812 380.621094 398.753906 C 381.445312 397.621094 382.308594 396.5 383.207031 395.394531 C 384.109375 394.289062 385.042969 393.203125 386.007812 392.132812 C 386.976562 391.0625 387.96875 390.015625 388.992188 388.992188 C 390.015625 387.96875 391.0625 386.976562 392.132812 386.007812 C 393.199219 385.042969 394.289062 384.109375 395.394531 383.210938 C 396.5 382.308594 397.621094 381.445312 398.75 380.621094 C 399.882812 379.792969 401.023438 379.007812 402.171875 378.265625 C 403.316406 377.523438 404.464844 376.824219 405.617188 376.171875 C 406.765625 375.519531 407.914062 374.914062 409.058594 374.355469 C 410.203125 373.796875 411.335938 373.289062 412.460938 372.835938 C 413.585938 372.378906 414.695312 371.976562 415.792969 371.625 C 416.890625 371.273438 417.964844 370.980469 419.023438 370.738281 C 420.078125 370.496094 421.109375 370.3125 422.117188 370.179688 C 423.125 370.050781 424.101562 369.976562 425.050781 369.960938 C 425.996094 369.945312 426.910156 369.984375 427.789062 370.078125 C 428.667969 370.175781 429.507812 370.328125 430.308594 370.535156 C 431.109375 370.742188 431.871094 371.003906 432.585938 371.324219 C 433.304688 371.640625 433.972656 372.011719 434.601562 372.4375 C 435.226562 372.859375 435.800781 373.335938 436.328125 373.863281 Z M 436.328125 373.863281 "/><path style=" stroke:none;fill-rule:nonzero;fill:rgb(89.7995%,22.349548%,20.779419%);fill-opacity:1;" d="M 377.761719 391.429688 L 391.429688 377.761719 L 407.050781 369.949219 L 418.765625 377.761719 L 412.90625 395.335938 L 395.335938 410.953125 L 377.761719 416.8125 L 369.949219 405.097656 Z M 377.761719 391.429688 "/><path style=" stroke:none;fill-rule:nonzero;fill:rgb(100%,32.159424%,32.159424%);fill-opacity:1;" d="M 418.765625 377.761719 L 407.050781 369.949219 L 428.527344 369.949219 Z M 440.242188 387.523438 L 418.765625 377.761719 L 412.90625 395.335938 Z M 395.335938 410.953125 L 421.175781 421.175781 L 412.90625 395.335938 Z M 377.761719 416.8125 L 385.570312 440.242188 L 395.335938 410.953125 Z M 369.949219 405.097656 L 369.949219 426.574219 L 377.761719 416.8125 Z M 369.949219 405.097656 "/></g></svg>