<?xml version="1.0" encoding="UTF-8"?><svg xmlns="http://www.w3.org/2000/svg" xmlns:xlink="http://www.w3.org/1999/xlink" contentScriptType="text/ecmascript" width="810pt" zoomAndPan="magnify" contentStyleType="text/css" viewBox="0 0 810 809.999993" height="809.999993pt" preserveAspectRatio="xMidYMid meet" version="1.2"><defs><clipPath xml:id="clip1" id="clip1"><path d="M 367.648438 358.308594 L 442.648438 358.308594 L 442.648438 452.058594 L 367.648438 452.058594 Z M 367.648438 358.308594 "/></clipPath></defs><g xml:id="surface1" id="surface1"><path style=" stroke:none;fill-rule:nonzero;fill:rgb(51.759338%,51.759338%,79.219055%);fill-opacity:1;" d="M 431.972656 450.863281 L 378.628906 450.863281 C 373.429688 450.863281 369.214844 446.652344 369.214844 441.453125 L 369.214844 369.292969 C 369.214844 364.09375 373.429688 359.882812 378.628906 359.882812 L 422.558594 359.882812 L 441.386719 378.707031 L 441.386719 441.453125 C 441.386719 446.652344 437.171875 450.863281 431.972656 450.863281 "/><path style=" stroke:none;fill-rule:nonzero;fill:rgb(83.529663%,81.568909%,92.549133%);fill-opacity:1;" d="M 431.972656 450.863281 L 378.628906 450.863281 C 373.429688 450.863281 369.214844 446.652344 369.214844 441.453125 L 369.214844 425.765625 L 441.386719 425.765625 L 441.386719 441.453125 C 441.386719 446.652344 437.171875 450.863281 431.972656 450.863281 "/><path style=" stroke:none;fill-rule:nonzero;fill:rgb(83.529663%,81.568909%,92.549133%);fill-opacity:1;" d="M 441.386719 378.707031 L 431.972656 378.707031 C 426.773438 378.707031 422.558594 374.492188 422.558594 369.292969 L 422.558594 359.882812 L 441.386719 378.707031 "/><path style=" stroke:none;fill-rule:nonzero;fill:rgb(100%,100%,100%);fill-opacity:1;" d="M 391.179688 381.84375 L 391.179688 410.078125 C 391.179688 411.8125 397.503906 413.214844 405.300781 413.214844 C 413.097656 413.214844 419.421875 411.8125 419.421875 410.078125 L 419.421875 381.84375 L 391.179688 381.84375 "/><path style=" stroke:none;fill-rule:nonzero;fill:rgb(32.548523%,33.329773%,68.629456%);fill-opacity:1;" d="M 419.421875 381.84375 C 419.421875 383.574219 413.097656 384.980469 405.300781 384.980469 C 397.503906 384.980469 391.179688 383.574219 391.179688 381.84375 C 391.179688 380.109375 397.503906 378.707031 405.300781 378.707031 C 413.097656 378.707031 419.421875 380.109375 419.421875 381.84375 "/><g clip-rule="nonzero" clip-path="url(#clip1)"><path style=" stroke:none;fill-rule:nonzero;fill:rgb(6.269836%,5.879211%,5.099487%);fill-opacity:1;" d="M 431.972656 449.296875 L 378.628906 449.296875 C 374.304688 449.296875 370.785156 445.777344 370.785156 441.453125 L 370.785156 427.335938 L 439.816406 427.335938 L 439.816406 441.453125 C 439.816406 445.777344 436.296875 449.296875 431.972656 449.296875 Z M 378.628906 361.449219 L 420.988281 361.449219 L 420.988281 369.292969 C 420.988281 375.347656 425.917969 380.273438 431.972656 380.273438 L 439.816406 380.273438 L 439.816406 424.195312 L 370.785156 424.195312 L 370.785156 369.292969 C 370.785156 364.96875 374.304688 361.449219 378.628906 361.449219 Z M 424.128906 363.667969 L 437.597656 377.136719 L 431.972656 377.136719 C 427.648438 377.136719 424.128906 373.617188 424.128906 369.292969 Z M 423.667969 358.773438 C 423.375 358.476562 422.972656 358.3125 422.558594 358.3125 L 378.628906 358.3125 C 372.574219 358.3125 367.648438 363.238281 367.648438 369.292969 L 367.648438 441.453125 C 367.648438 447.507812 372.574219 452.433594 378.628906 452.433594 L 431.972656 452.433594 C 438.027344 452.433594 442.953125 447.507812 442.953125 441.453125 L 442.953125 378.707031 C 442.953125 378.289062 442.789062 377.890625 442.496094 377.597656 L 423.667969 358.773438 "/></g><path style=" stroke:none;fill-rule:nonzero;fill:rgb(6.269836%,5.879211%,5.099487%);fill-opacity:1;" d="M 391.179688 433.609375 L 394.320312 433.609375 C 395.183594 433.609375 395.886719 432.90625 395.886719 432.039062 C 395.886719 431.175781 395.183594 430.472656 394.320312 430.472656 L 391.179688 430.472656 C 388.585938 430.472656 386.472656 432.582031 386.472656 435.179688 C 386.472656 437.773438 388.585938 439.882812 391.179688 439.882812 C 392.046875 439.882812 392.75 440.589844 392.75 441.453125 C 392.75 442.316406 392.046875 443.019531 391.179688 443.019531 L 388.042969 443.019531 C 387.175781 443.019531 386.472656 443.722656 386.472656 444.589844 C 386.472656 445.457031 387.175781 446.160156 388.042969 446.160156 L 391.179688 446.160156 C 393.777344 446.160156 395.886719 444.046875 395.886719 441.453125 C 395.886719 438.859375 393.777344 436.746094 391.179688 436.746094 C 390.316406 436.746094 389.613281 436.042969 389.613281 435.179688 C 389.613281 434.3125 390.316406 433.609375 391.179688 433.609375 "/><path style=" stroke:none;fill-rule:nonzero;fill:rgb(6.269836%,5.879211%,5.099487%);fill-opacity:1;" d="M 422.558594 443.019531 L 417.851562 443.019531 L 417.851562 432.039062 C 417.851562 431.175781 417.148438 430.472656 416.28125 430.472656 C 415.417969 430.472656 414.714844 431.175781 414.714844 432.039062 L 414.714844 444.589844 C 414.714844 445.457031 415.417969 446.160156 416.28125 446.160156 L 422.558594 446.160156 C 423.425781 446.160156 424.128906 445.457031 424.128906 444.589844 C 424.128906 443.722656 423.425781 443.019531 422.558594 443.019531 "/><path style=" stroke:none;fill-rule:nonzero;fill:rgb(6.269836%,5.879211%,5.099487%);fill-opacity:1;" d="M 405.300781 443.019531 C 403.601562 443.019531 402.164062 440.867188 402.164062 438.316406 C 402.164062 435.765625 403.601562 433.609375 405.300781 433.609375 C 407 433.609375 408.4375 435.765625 408.4375 438.316406 C 408.4375 439.078125 408.308594 439.804688 408.082031 440.449219 L 406.410156 438.773438 C 405.796875 438.164062 404.804688 438.164062 404.191406 438.773438 C 403.578125 439.386719 403.578125 440.378906 404.191406 440.992188 L 406.070312 442.871094 C 405.824219 442.96875 405.566406 443.019531 405.300781 443.019531 Z M 410.441406 442.804688 C 411.15625 441.53125 411.578125 439.984375 411.578125 438.316406 C 411.578125 433.992188 408.761719 430.472656 405.300781 430.472656 C 401.839844 430.472656 399.023438 433.992188 399.023438 438.316406 C 399.023438 442.640625 401.839844 446.160156 405.300781 446.160156 C 406.410156 446.160156 407.453125 445.792969 408.359375 445.160156 L 408.898438 445.699219 C 409.203125 446.003906 409.605469 446.160156 410.007812 446.160156 C 410.410156 446.160156 410.808594 446.003906 411.117188 445.699219 C 411.730469 445.085938 411.730469 444.09375 411.117188 443.480469 L 410.441406 442.804688 "/><path style=" stroke:none;fill-rule:nonzero;fill:rgb(6.269836%,5.879211%,5.099487%);fill-opacity:1;" d="M 405.300781 380.273438 C 411.496094 380.273438 415.609375 381.152344 417.25 381.84375 C 415.609375 382.535156 411.496094 383.410156 405.300781 383.410156 C 399.105469 383.410156 394.992188 382.535156 393.351562 381.84375 C 394.992188 381.152344 399.105469 380.273438 405.300781 380.273438 Z M 392.75 384.972656 C 393.488281 385.238281 394.269531 385.433594 394.976562 385.59375 C 397.75 386.210938 401.417969 386.550781 405.300781 386.550781 C 409.183594 386.550781 412.851562 386.210938 415.625 385.59375 C 416.332031 385.433594 417.113281 385.238281 417.851562 384.972656 L 417.851562 390.9375 C 416.902344 391.636719 412.511719 392.824219 405.300781 392.824219 C 398.089844 392.824219 393.699219 391.636719 392.75 390.9375 Z M 392.75 394.382812 C 393.488281 394.648438 394.269531 394.847656 394.976562 395.003906 C 397.75 395.621094 401.417969 395.960938 405.300781 395.960938 C 409.183594 395.960938 412.851562 395.621094 415.625 395.003906 C 416.332031 394.847656 417.113281 394.648438 417.851562 394.382812 L 417.851562 400.347656 C 416.902344 401.046875 412.511719 402.234375 405.300781 402.234375 C 398.089844 402.234375 393.699219 401.046875 392.75 400.347656 Z M 405.300781 411.648438 C 398.09375 411.648438 393.707031 410.460938 392.75 409.761719 L 392.75 403.796875 C 393.488281 404.0625 394.269531 404.257812 394.976562 404.417969 C 397.75 405.035156 401.417969 405.375 405.300781 405.375 C 409.183594 405.375 412.851562 405.035156 415.625 404.417969 C 416.332031 404.257812 417.113281 404.0625 417.851562 403.796875 L 417.851562 409.761719 C 416.898438 410.460938 412.507812 411.648438 405.300781 411.648438 Z M 394.976562 413.828125 C 397.75 414.445312 401.417969 414.785156 405.300781 414.785156 C 409.183594 414.785156 412.851562 414.445312 415.625 413.828125 C 417.929688 413.316406 420.988281 412.371094 420.988281 410.078125 L 420.988281 381.84375 C 420.988281 379.550781 417.929688 378.605469 415.625 378.09375 C 412.851562 377.476562 409.183594 377.136719 405.300781 377.136719 C 401.417969 377.136719 397.75 377.476562 394.976562 378.09375 C 392.671875 378.605469 389.613281 379.550781 389.613281 381.84375 L 389.613281 410.078125 C 389.613281 412.371094 392.671875 413.316406 394.976562 413.828125 "/></g></svg>