<?xml version="1.0" encoding="UTF-8"?><svg xmlns="http://www.w3.org/2000/svg" xmlns:xlink="http://www.w3.org/1999/xlink" contentScriptType="text/ecmascript" width="810pt" zoomAndPan="magnify" contentStyleType="text/css" viewBox="0 0 810 809.999993" height="809.999993pt" preserveAspectRatio="xMidYMid meet" version="1.2"><defs><clipPath xml:id="clip1" id="clip1"><path d="M 348.917969 348.917969 L 461.417969 348.917969 L 461.417969 461.417969 L 348.917969 461.417969 Z M 348.917969 348.917969 "/></clipPath><clipPath xml:id="clip2" id="clip2"><path d="M 348.917969 348.917969 L 461.417969 348.917969 L 461.417969 461.417969 L 348.917969 461.417969 Z M 348.917969 348.917969 "/></clipPath></defs><g xml:id="surface1" id="surface1"><g clip-rule="nonzero" clip-path="url(#clip1)"><path style=" stroke:none;fill-rule:nonzero;fill:rgb(100%,100%,100%);fill-opacity:1;" d="M 461.757812 405.335938 C 461.757812 407.183594 461.667969 409.027344 461.484375 410.867188 C 461.304688 412.707031 461.035156 414.53125 460.671875 416.34375 C 460.3125 418.15625 459.863281 419.945312 459.328125 421.714844 C 458.792969 423.484375 458.171875 425.222656 457.464844 426.929688 C 456.753906 428.636719 455.964844 430.304688 455.09375 431.933594 C 454.222656 433.5625 453.277344 435.144531 452.25 436.683594 C 451.222656 438.21875 450.125 439.703125 448.949219 441.128906 C 447.777344 442.558594 446.539062 443.925781 445.234375 445.234375 C 443.925781 446.539062 442.558594 447.777344 441.128906 448.949219 C 439.703125 450.125 438.21875 451.222656 436.683594 452.25 C 435.144531 453.277344 433.5625 454.222656 431.933594 455.09375 C 430.304688 455.964844 428.636719 456.753906 426.929688 457.464844 C 425.222656 458.171875 423.484375 458.792969 421.714844 459.328125 C 419.945312 459.863281 418.15625 460.3125 416.34375 460.671875 C 414.53125 461.035156 412.707031 461.304688 410.867188 461.484375 C 409.027344 461.667969 407.183594 461.757812 405.335938 461.757812 C 403.488281 461.757812 401.644531 461.667969 399.808594 461.484375 C 397.96875 461.304688 396.140625 461.035156 394.332031 460.671875 C 392.519531 460.3125 390.726562 459.863281 388.960938 459.328125 C 387.191406 458.792969 385.453125 458.171875 383.746094 457.464844 C 382.039062 456.753906 380.371094 455.964844 378.742188 455.09375 C 377.109375 454.222656 375.527344 453.277344 373.992188 452.25 C 372.457031 451.222656 370.972656 450.125 369.542969 448.949219 C 368.117188 447.777344 366.75 446.539062 365.441406 445.234375 C 364.136719 443.925781 362.894531 442.558594 361.722656 441.128906 C 360.550781 439.703125 359.453125 438.21875 358.425781 436.683594 C 357.398438 435.144531 356.449219 433.5625 355.578125 431.933594 C 354.707031 430.304688 353.917969 428.636719 353.210938 426.929688 C 352.503906 425.222656 351.882812 423.484375 351.347656 421.714844 C 350.808594 419.945312 350.363281 418.15625 350 416.34375 C 349.640625 414.53125 349.371094 412.707031 349.1875 410.867188 C 349.007812 409.027344 348.917969 407.183594 348.917969 405.335938 C 348.917969 403.488281 349.007812 401.644531 349.1875 399.808594 C 349.371094 397.96875 349.640625 396.140625 350 394.332031 C 350.363281 392.519531 350.808594 390.726562 351.347656 388.960938 C 351.882812 387.191406 352.503906 385.453125 353.210938 383.746094 C 353.917969 382.039062 354.707031 380.371094 355.578125 378.742188 C 356.449219 377.109375 357.398438 375.527344 358.425781 373.992188 C 359.453125 372.457031 360.550781 370.972656 361.722656 369.542969 C 362.894531 368.117188 364.136719 366.75 365.441406 365.441406 C 366.75 364.136719 368.117188 362.894531 369.542969 361.722656 C 370.972656 360.550781 372.457031 359.453125 373.992188 358.425781 C 375.527344 357.398438 377.109375 356.449219 378.742188 355.578125 C 380.371094 354.707031 382.039062 353.917969 383.746094 353.210938 C 385.453125 352.503906 387.191406 351.882812 388.960938 351.347656 C 390.726562 350.808594 392.519531 350.363281 394.332031 350 C 396.140625 349.640625 397.96875 349.371094 399.808594 349.1875 C 401.644531 349.007812 403.488281 348.917969 405.335938 348.917969 C 407.183594 348.917969 409.027344 349.007812 410.867188 349.1875 C 412.707031 349.371094 414.53125 349.640625 416.34375 350 C 418.15625 350.363281 419.945312 350.808594 421.714844 351.347656 C 423.484375 351.882812 425.222656 352.503906 426.929688 353.210938 C 428.636719 353.917969 430.304688 354.707031 431.933594 355.578125 C 433.5625 356.449219 435.144531 357.398438 436.683594 358.425781 C 438.21875 359.453125 439.703125 360.550781 441.128906 361.722656 C 442.558594 362.894531 443.925781 364.136719 445.234375 365.441406 C 446.539062 366.75 447.777344 368.117188 448.949219 369.542969 C 450.125 370.972656 451.222656 372.457031 452.25 373.992188 C 453.277344 375.527344 454.222656 377.109375 455.09375 378.742188 C 455.964844 380.371094 456.753906 382.039062 457.464844 383.746094 C 458.171875 385.453125 458.792969 387.191406 459.328125 388.960938 C 459.863281 390.726562 460.3125 392.519531 460.671875 394.332031 C 461.035156 396.140625 461.304688 397.96875 461.484375 399.808594 C 461.667969 401.644531 461.757812 403.488281 461.757812 405.335938 Z M 461.757812 405.335938 "/></g><path style=" stroke:none;fill-rule:nonzero;fill:rgb(0.389099%,34.118652%,60.778809%);fill-opacity:1;" d="M 356.945312 405.335938 C 356.945312 424.5 368.074219 441.046875 384.222656 448.890625 L 361.132812 385.636719 C 358.445312 391.664062 356.945312 398.308594 356.945312 405.335938 Z M 438.011719 402.898438 C 438.011719 396.921875 435.859375 392.769531 434.027344 389.558594 C 431.570312 385.535156 429.261719 382.191406 429.261719 378.207031 C 429.261719 373.777344 432.652344 369.617188 437.398438 369.617188 C 437.613281 369.617188 437.804688 369.636719 438.019531 369.640625 C 429.410156 361.734375 417.941406 356.945312 405.335938 356.945312 C 388.425781 356.945312 373.546875 365.625 364.894531 378.765625 C 366.035156 378.789062 367.101562 378.808594 368.019531 378.808594 C 373.066406 378.808594 380.917969 378.207031 380.917969 378.207031 C 383.515625 378.03125 383.835938 381.875 381.214844 382.191406 C 381.214844 382.191406 378.601562 382.503906 375.691406 382.644531 L 393.316406 435.078125 L 403.90625 403.320312 L 396.363281 382.644531 C 393.761719 382.503906 391.289062 382.191406 391.289062 382.191406 C 388.679688 382.019531 388.980469 378.03125 391.585938 378.207031 C 391.585938 378.207031 399.589844 378.808594 404.34375 378.808594 C 409.410156 378.808594 417.242188 378.207031 417.242188 378.207031 C 419.847656 378.03125 420.15625 381.875 417.554688 382.191406 C 417.554688 382.191406 414.917969 382.503906 412.007812 382.644531 L 429.492188 434.667969 L 434.328125 418.546875 C 436.789062 412.257812 438.011719 407.058594 438.011719 402.898438 Z M 406.183594 409.558594 L 391.664062 451.757812 C 396.007812 453.046875 400.589844 453.730469 405.335938 453.730469 C 410.96875 453.730469 416.371094 452.75 421.414062 450.988281 C 421.296875 450.773438 421.160156 450.554688 421.0625 450.320312 Z M 447.808594 382.105469 C 448.023438 383.648438 448.140625 385.304688 448.140625 387.082031 C 448.140625 392.003906 447.210938 397.523438 444.453125 404.4375 L 429.675781 447.1875 C 444.0625 438.800781 453.730469 423.195312 453.730469 405.339844 C 453.730469 396.925781 451.578125 389.015625 447.808594 382.105469 Z M 447.808594 382.105469 "/><g clip-rule="nonzero" clip-path="url(#clip2)"><path style=" stroke:none;fill-rule:nonzero;fill:rgb(0.389099%,34.118652%,60.778809%);fill-opacity:1;" d="M 348.917969 405.335938 C 348.917969 436.4375 374.21875 461.757812 405.335938 461.757812 C 436.453125 461.757812 461.757812 436.4375 461.757812 405.335938 C 461.757812 374.238281 436.453125 348.917969 405.335938 348.917969 C 374.21875 348.917969 348.917969 374.238281 348.917969 405.335938 Z M 351.503906 405.335938 C 351.503906 375.667969 375.644531 351.519531 405.335938 351.519531 C 435.027344 351.519531 459.167969 375.667969 459.167969 405.335938 C 459.167969 435.003906 435.027344 459.160156 405.335938 459.160156 C 375.652344 459.160156 351.503906 435.003906 351.503906 405.335938 Z M 351.503906 405.335938 "/></g></g></svg>